<svg width="22" height="13" viewBox="0 0 22 13" fill="none" xmlns="http://www.w3.org/2000/svg">
<path fill-rule="evenodd" clip-rule="evenodd" d="M19.833 5.846C19.632 5.891 19.494 5.917 19.359 5.953C18.514 6.174 17.663 6.349 16.783 6.316C15.607 6.271 14.597 5.798 13.706 5.036C13.346 4.727 13.012 4.386 12.668 4.058C12.501 3.9 12.461 3.72 12.588 3.514L12.913 2.987L13.352 3.469C13.985 4.171 14.662 4.81 15.555 5.151C16.432 5.485 17.325 5.436 18.222 5.285C19.49 5.073 20.661 4.566 21.809 3.997C21.847 3.978 21.889 3.966 22 3.922C21.924 4.065 21.882 4.15 21.834 4.23C20.158 7.048 18.482 9.866 16.804 12.683C16.598 13.029 16.521 13.055 16.163 12.88C13.797 11.718 11.319 11.497 8.761 11.937C8.361 12.006 8.29 11.972 8.099 11.562C7.89 11.114 7.892 11.126 8.365 11.035C9.68296 10.7775 11.0325 10.7226 12.367 10.872C13.616 11.012 14.861 11.196 16.007 11.784C16.171 11.869 16.258 11.798 16.34 11.662C17.067 10.448 17.794 9.234 18.525 8.022C18.916 7.373 19.315 6.729 19.708 6.082C19.742 6.026 19.769 5.967 19.833 5.846ZM2.179 5.967C2.347 6.25 2.515 6.533 2.685 6.815L6.049 12.395C6.209 12.661 6.209 12.669 5.932 12.796C5.335 13.071 5.409 13.142 5.044 12.531C3.754 10.366 2.466 8.199 1.178 6.033L0.134 4.278C0.0839998 4.195 0.044 4.105 0 4.018L0.039 3.966C0.186 4.031 0.334 4.092 0.479 4.16C1.362 4.573 2.255 4.957 3.201 5.191C4.415 5.493 5.614 5.528 6.771 4.951C7.491 4.592 8.084 4.063 8.618 3.46C9.473 2.492 10.167 1.406 10.796 0.274L10.949 0C11.032 0.124 11.085 0.218 11.152 0.3C11.521 0.752 11.434 1.154 11.123 1.622C10.429 2.666 9.73 3.7 8.806 4.548C7.98 5.306 7.054 5.878 5.966 6.139C5.112 6.344 4.254 6.303 3.397 6.144C3.005 6.071 2.615 5.989 2.224 5.911L2.179 5.967Z" fill="white"/>
</svg>
